<svg width="36" height="36" viewBox="0 0 36 36" fill="none" xmlns="http://www.w3.org/2000/svg">
<circle cx="18" cy="18" r="10" fill="white"/>
<path fill-rule="evenodd" clip-rule="evenodd" d="M11.7466 17.8744C14.6618 16.6043 16.6057 15.767 17.5783 15.3624C20.3555 14.2073 20.9325 14.0067 21.3086 14.0001C21.3914 13.9986 21.5763 14.0191 21.6961 14.1163C21.7973 14.1984 21.8251 14.3093 21.8385 14.3871C21.8518 14.465 21.8684 14.6423 21.8552 14.7808C21.7047 16.362 21.0535 20.1993 20.7222 21.9703C20.582 22.7197 20.306 22.9709 20.0388 22.9955C19.4581 23.049 19.0171 22.6118 18.4547 22.2431C17.5745 21.6661 17.0773 21.307 16.223 20.744C15.2357 20.0934 15.8757 19.7358 16.4384 19.1514C16.5856 18.9984 19.1443 16.6711 19.1938 16.46C19.2 16.4336 19.2058 16.3352 19.1473 16.2832C19.0888 16.2312 19.0025 16.249 18.9403 16.2631C18.852 16.2832 17.446 17.2125 14.7222 19.0511C14.3231 19.3252 13.9616 19.4587 13.6377 19.4517C13.2807 19.444 12.5939 19.2498 12.0833 19.0838C11.457 18.8803 10.9593 18.7726 11.0026 18.4269C11.0252 18.2468 11.2732 18.0627 11.7466 17.8744Z" fill="black"/>
</svg>
