<svg xmlns="http://www.w3.org/2000/svg" width="61" height="60" fill="none"><path fill="#29CB64" d="M20 0h20.333v4H20V0ZM40.334 60H20.001v-4h20.333v4ZM0 40.333V20h4v20.333H0ZM56.333 40V19.667h4V40h-4ZM16 4h4v4h-4V4ZM44.333 56h-3.999l-.001-4h4v4ZM44.333 3.667h-4v4h4v-4ZM16 56.333h4v-4h-4v4Z"/><path fill="#29CB64" d="M12.001 4h4v4h-4V4ZM48.334 56h-4.001v-4h4.001v4ZM48.334 3.667h-4.001v4h4.001v-4ZM12.001 56.333h4v-4h-4v4ZM4 12h4v4H4v-4ZM56.333 48h-4v-4h4v4ZM56.333 11.667h-4v4h4v-4ZM4 48.333h4v-4H4v4ZM4 16h4v4H4v-4ZM56.333 44h-4v-4h4v4ZM56.333 15.667h-4v4h4v-4ZM4 44.333h4v-4H4v4ZM8 8h4.001L12 12H8V8ZM52.334 52h-4v-4h3.999l.001 4ZM52.334 7.667h-4v4h3.999l.001-4ZM8 52h4V12H8v40Z"/><path fill="#29CB64" d="M12 51.5v1l7 3.5 20.5 1 .5-1h5l2-3 1-1h.5l3.5-4h.5v-.5L56 40h.5l1.5-7-1-13-1-.5-3-7.5-1-.5L48.5 8 48 7l-7.5-3-18-3L20 4l-6 2-1.999 2L9.5 13H5l-1 7v20.5l2.5 1 5.5 10Z"/><path fill="#fff" d="M34.48 44h-4.72V20.8l-6 5.88v-4.8l6.64-6.56h4.08V44Z"/></svg>