<svg width="61" height="60" viewBox="0 0 61 60" fill="none" xmlns="http://www.w3.org/2000/svg">
<rect x="19.9993" width="20.3333" height="3.99999" fill="black"/>
<rect x="40.3328" y="60" width="20.3333" height="3.99999" transform="rotate(-180 40.3328 60)" fill="black"/>
<rect y="40.333" width="20.3333" height="3.99999" transform="rotate(-90 0 40.333)" fill="black"/>
<rect x="56.3323" y="40" width="20.3333" height="3.99999" transform="rotate(-90 56.3323 40)" fill="black"/>
<rect x="15.9995" y="4" width="3.99999" height="3.99999" fill="black"/>
<rect x="44.3333" y="56" width="3.99999" height="3.99999" transform="rotate(-180 44.3333 56)" fill="black"/>
<rect width="3.99999" height="3.99999" transform="matrix(-1 0 0 1 44.3333 3.6665)" fill="black"/>
<rect width="3.99999" height="3.99999" transform="matrix(1 8.74228e-08 8.74228e-08 -1 15.9995 56.333)" fill="black"/>
<rect x="12" y="4" width="3.99999" height="3.99999" fill="black"/>
<rect x="48.333" y="56" width="3.99999" height="3.99999" transform="rotate(-180 48.333 56)" fill="black"/>
<rect width="3.99999" height="3.99999" transform="matrix(-1 0 0 1 48.333 3.6665)" fill="black"/>
<rect width="3.99999" height="3.99999" transform="matrix(1 8.74228e-08 8.74228e-08 -1 12 56.333)" fill="black"/>
<rect x="3.99976" y="12" width="3.99999" height="3.99999" fill="black"/>
<rect x="56.3323" y="47.9995" width="3.99999" height="3.99999" transform="rotate(-180 56.3323 47.9995)" fill="black"/>
<rect width="3.99999" height="3.99999" transform="matrix(-1 0 0 1 56.3323 11.6665)" fill="black"/>
<rect width="3.99999" height="3.99999" transform="matrix(1 8.74228e-08 8.74228e-08 -1 3.99976 48.333)" fill="black"/>
<rect x="3.99976" y="16" width="3.99999" height="3.99999" fill="black"/>
<rect x="56.3323" y="44" width="3.99999" height="3.99999" transform="rotate(-180 56.3323 44)" fill="black"/>
<rect width="3.99999" height="3.99999" transform="matrix(-1 0 0 1 56.3323 15.6665)" fill="black"/>
<rect width="3.99999" height="3.99999" transform="matrix(1 8.74228e-08 8.74228e-08 -1 3.99976 44.3335)" fill="black"/>
<rect x="7.99927" y="8" width="3.99999" height="3.99999" fill="black"/>
<rect x="52.3325" y="52" width="3.99999" height="3.99999" transform="rotate(-180 52.3325 52)" fill="black"/>
<rect width="3.99999" height="3.99999" transform="matrix(-1 0 0 1 52.3325 7.6665)" fill="black"/>
<rect width="3.99999" height="3.99999" transform="matrix(1 8.74228e-08 8.74228e-08 -1 7.99927 52.333)" fill="black"/>
<rect x="13.436" y="36.436" width="4.85905" height="4.85905" transform="rotate(-45 13.436 36.436)" fill="black"/>
<rect x="20.3071" y="36.4365" width="4.85905" height="4.85905" transform="rotate(-45 20.3071 36.4365)" fill="black"/>
<rect x="27.1804" y="36.4351" width="4.85905" height="4.85905" transform="rotate(-45 27.1804 36.4351)" fill="black"/>
<rect x="27.1792" y="29.5645" width="4.85905" height="4.85905" transform="rotate(-45 27.1792 29.5645)" fill="black"/>
<rect x="27.1794" y="22.6924" width="4.85905" height="4.85905" transform="rotate(-45 27.1794 22.6924)" fill="black"/>
<rect x="27.1794" y="15.8203" width="4.85905" height="4.85905" transform="rotate(-45 27.1794 15.8203)" fill="black"/>
</svg>
