<svg width="61" height="60" viewBox="0 0 61 60" fill="none" xmlns="http://www.w3.org/2000/svg">
<rect x="19.9993" width="20.3333" height="3.99999" fill="black"/>
<rect x="40.3326" y="60" width="20.3333" height="3.99999" transform="rotate(-180 40.3326 60)" fill="black"/>
<rect y="40.3333" width="20.3333" height="3.99999" transform="rotate(-90 0 40.3333)" fill="black"/>
<rect x="56.3323" y="40" width="20.3333" height="3.99999" transform="rotate(-90 56.3323 40)" fill="black"/>
<rect x="15.9996" y="4" width="3.99999" height="3.99999" fill="black"/>
<rect x="44.3333" y="56" width="3.99999" height="3.99999" transform="rotate(-180 44.3333 56)" fill="black"/>
<rect width="3.99999" height="3.99999" transform="matrix(-1 0 0 1 44.3333 3.66675)" fill="black"/>
<rect width="3.99999" height="3.99999" transform="matrix(1 8.74228e-08 8.74228e-08 -1 15.9996 56.3333)" fill="black"/>
<rect x="11.9999" y="4" width="3.99999" height="3.99999" fill="black"/>
<rect x="48.3329" y="56" width="3.99999" height="3.99999" transform="rotate(-180 48.3329 56)" fill="black"/>
<rect width="3.99999" height="3.99999" transform="matrix(-1 0 0 1 48.3329 3.66675)" fill="black"/>
<rect width="3.99999" height="3.99999" transform="matrix(1 8.74228e-08 8.74228e-08 -1 11.9999 56.3333)" fill="black"/>
<rect x="3.99963" y="12" width="3.99999" height="3.99999" fill="black"/>
<rect x="56.3323" y="47.9998" width="3.99999" height="3.99999" transform="rotate(-180 56.3323 47.9998)" fill="black"/>
<rect width="3.99999" height="3.99999" transform="matrix(-1 0 0 1 56.3323 11.6667)" fill="black"/>
<rect width="3.99999" height="3.99999" transform="matrix(1 8.74228e-08 8.74228e-08 -1 3.99963 48.3333)" fill="black"/>
<rect x="3.99963" y="16" width="3.99999" height="3.99999" fill="black"/>
<rect x="56.3323" y="44" width="3.99999" height="3.99999" transform="rotate(-180 56.3323 44)" fill="black"/>
<rect width="3.99999" height="3.99999" transform="matrix(-1 0 0 1 56.3323 15.6665)" fill="black"/>
<rect width="3.99999" height="3.99999" transform="matrix(1 8.74228e-08 8.74228e-08 -1 3.99963 44.3333)" fill="black"/>
<rect x="7.99927" y="7.99976" width="3.99999" height="3.99999" fill="black"/>
<rect x="52.3326" y="51.9998" width="3.99999" height="3.99999" transform="rotate(-180 52.3326 51.9998)" fill="black"/>
<rect width="3.99999" height="3.99999" transform="matrix(-1 0 0 1 52.3326 7.6665)" fill="black"/>
<rect width="3.99999" height="3.99999" transform="matrix(1 8.74228e-08 8.74228e-08 -1 7.99927 52.333)" fill="black"/>
<rect x="15.3872" y="27.5344" width="4.85905" height="4.85905" fill="black"/>
<rect x="20.2455" y="32.3933" width="4.85905" height="4.85905" fill="black"/>
<rect x="25.1067" y="37.2524" width="4.85905" height="4.85905" fill="black"/>
<rect x="29.9641" y="32.3933" width="4.85905" height="4.85905" fill="black"/>
<rect x="34.8234" y="27.5344" width="4.85905" height="4.85905" fill="black"/>
<rect x="39.6826" y="22.675" width="4.85905" height="4.85905" fill="black"/>
<rect x="44.5409" y="17.8164" width="4.85905" height="4.85905" fill="black"/>
</svg>
