<svg width="159" height="233" viewBox="0 0 159 233" fill="none" xmlns="http://www.w3.org/2000/svg">
<path d="M108.04 208.608C105.957 208.608 103.96 207.78 102.488 206.308C101.016 204.836 100.188 202.839 100.188 200.756C100.188 198.674 101.016 196.677 102.488 195.205C103.96 193.732 105.957 192.905 108.04 192.905C113.862 192.905 120.354 184.019 120.354 171.299C120.354 169.216 121.182 167.219 122.654 165.747C124.126 164.274 126.123 163.447 128.206 163.447C130.288 163.447 132.285 164.274 133.757 165.747C135.23 167.219 136.057 169.216 136.057 171.299C136.057 192.215 123.763 208.608 108.04 208.608Z" fill="white" stroke="#010101" stroke-width="0.739609" stroke-miterlimit="10" stroke-linecap="round"/>
<path d="M64.6846 53.0216L134.9 165.253L121.51 169.534L51.2744 57.3226" fill="white"/>
<path d="M64.6846 53.0216L134.9 165.253L121.51 169.534L51.2744 57.3226" stroke="#010101" stroke-width="0.739609" stroke-miterlimit="10" stroke-linecap="round"/>
<path d="M145.658 205.38H140.83C138.836 205.38 137.219 206.997 137.219 208.991V226.418C137.219 228.413 138.836 230.03 140.83 230.03H145.658C147.653 230.03 149.27 228.413 149.27 226.418V208.991C149.27 206.997 147.653 205.38 145.658 205.38Z" fill="white"/>
<path d="M145.655 206.396C146.344 206.396 147.004 206.67 147.491 207.157C147.978 207.644 148.252 208.305 148.252 208.993V226.42C148.252 226.76 148.185 227.097 148.054 227.411C147.923 227.725 147.732 228.01 147.49 228.249C147.249 228.489 146.962 228.678 146.647 228.807C146.333 228.935 145.995 229 145.655 228.997H140.827C140.487 229 140.149 228.935 139.835 228.807C139.52 228.678 139.233 228.489 138.992 228.249C138.75 228.01 138.559 227.725 138.428 227.411C138.297 227.097 138.23 226.76 138.23 226.42V208.993C138.23 208.305 138.504 207.644 138.991 207.157C139.478 206.67 140.138 206.396 140.827 206.396H145.655ZM145.655 204.368H140.827C139.6 204.368 138.423 204.855 137.556 205.722C136.689 206.59 136.201 207.766 136.201 208.993V226.42C136.201 227.027 136.321 227.627 136.554 228.187C136.786 228.747 137.127 229.256 137.557 229.684C137.987 230.112 138.497 230.451 139.058 230.681C139.619 230.911 140.22 231.028 140.827 231.026H145.655C146.262 231.028 146.863 230.911 147.424 230.681C147.985 230.451 148.495 230.112 148.925 229.684C149.355 229.256 149.696 228.747 149.928 228.187C150.161 227.627 150.281 227.027 150.281 226.42V208.993C150.281 207.766 149.793 206.59 148.926 205.722C148.059 204.855 146.882 204.368 145.655 204.368Z" fill="#010101"/>
<path d="M148.374 228.85H108.042C108.053 225.665 109.324 222.613 111.579 220.362C113.833 218.112 116.887 216.845 120.073 216.84H136.303" fill="white"/>
<path d="M148.374 228.85H108.042C108.053 225.665 109.324 222.613 111.579 220.362C113.833 218.112 116.887 216.845 120.073 216.84H136.303" stroke="#010101" stroke-width="0.739609" stroke-miterlimit="10" stroke-linecap="round"/>
<path d="M46.837 119.768C-5.18057 134.436 153.002 185.074 153.002 185.074" stroke="#010101" stroke-width="11.0941" stroke-miterlimit="10" stroke-linecap="round"/>
<path d="M151.084 171.551L137.016 170.999L135.358 213.185L149.427 213.737L151.084 171.551Z" fill="#010101"/>
<path d="M53.4118 120.054C144.869 120.054 49.5166 165.803 50.1455 170.205L14.8652 182.216" stroke="#010101" stroke-width="11.0941" stroke-miterlimit="10" stroke-linecap="round"/>
<path d="M21.9156 176.289H7.83594V210.352H21.9156V176.289Z" fill="#010101"/>
<path d="M17.2941 206.856H12.4657C10.4713 206.856 8.85449 208.473 8.85449 210.467V227.895C8.85449 229.889 10.4713 231.506 12.4657 231.506H17.2941C19.2886 231.506 20.9054 229.889 20.9054 227.895V210.467C20.9054 208.473 19.2886 206.856 17.2941 206.856Z" fill="white"/>
<path d="M17.29 207.88C17.9787 207.88 18.6392 208.154 19.1262 208.641C19.6132 209.128 19.8868 209.789 19.8868 210.477V227.904C19.8815 228.591 19.6062 229.249 19.1204 229.735C18.6345 230.221 17.9771 230.496 17.29 230.501H12.4615C11.7728 230.501 11.1123 230.228 10.6253 229.741C10.1383 229.254 9.8647 228.593 9.8647 227.904V210.477C9.8647 209.789 10.1383 209.128 10.6253 208.641C11.1123 208.154 11.7728 207.88 12.4615 207.88H17.29ZM17.29 205.852H12.4615C11.2347 205.852 10.0582 206.339 9.19073 207.207C8.32327 208.074 7.83594 209.25 7.83594 210.477V227.904C7.83594 229.131 8.32327 230.308 9.19073 231.175C10.0582 232.043 11.2347 232.53 12.4615 232.53H17.29C18.5168 232.53 19.6933 232.043 20.5608 231.175C21.4282 230.308 21.9156 229.131 21.9156 227.904V210.477C21.9156 209.25 21.4282 208.074 20.5608 207.207C19.6933 206.339 18.5168 205.852 17.29 205.852Z" fill="#010101"/>
<path d="M9.75391 230.334H50.0655C50.0548 227.152 48.786 224.104 46.536 221.853C44.2859 219.603 41.2372 218.335 38.0552 218.324H21.8251" fill="white"/>
<path d="M9.75391 230.334H50.0655C50.0548 227.152 48.786 224.104 46.536 221.853C44.2859 219.603 41.2372 218.335 38.0552 218.324H21.8251" stroke="#010101" stroke-width="0.739609" stroke-miterlimit="10" stroke-linecap="round"/>
<path d="M68.7278 113.356L40.3251 111.53L36.4907 55.3537C36.361 53.5097 36.5962 51.6582 37.1829 49.9052C37.7696 48.1522 38.6963 46.5321 39.9098 45.1377C41.1234 43.7432 42.6 42.6018 44.2552 41.7787C45.9104 40.9556 47.7117 40.467 49.5559 40.3408C57.3058 39.7931 64.0413 45.6562 64.8326 57.1593L68.7278 113.356Z" fill="white" stroke="#010101" stroke-width="0.739609" stroke-miterlimit="10" stroke-linecap="round"/>
<path d="M53.5898 74.9349L18.6139 178.098L6.78613 170.449L49.1874 45.0309" fill="white"/>
<path d="M53.5898 74.9349L18.6139 178.098L6.78613 170.449L49.1874 45.0309" stroke="#010101" stroke-width="0.739609" stroke-miterlimit="10" stroke-linecap="round"/>
<path d="M50.4585 0.424527L46.9167 0.669714C43.5298 0.904172 40.9742 3.83981 41.2087 7.22669L43.0665 34.0639C43.301 37.4508 46.2367 40.0064 49.6235 39.7719L53.1654 39.5267C56.5523 39.2923 59.1078 36.3566 58.8734 32.9697L57.0156 6.13246C56.7811 2.74558 53.8454 0.190069 50.4585 0.424527Z" fill="white" stroke="#010101" stroke-width="0.739609" stroke-miterlimit="10" stroke-linecap="round"/>
<path d="M47.5647 12.7521L56.5116 23.3828C56.7257 23.6379 56.8651 23.9473 56.9143 24.2768C56.9635 24.6062 56.9206 24.9428 56.7905 25.2494C56.6603 25.5559 56.4478 25.8205 56.1766 26.0138C55.9054 26.2071 55.586 26.3217 55.2537 26.3448L47.1387 26.9129" fill="white"/>
<path d="M47.5647 12.7521L56.5116 23.3828C56.7257 23.6379 56.8651 23.9473 56.9143 24.2768C56.9635 24.6062 56.9206 24.9428 56.7905 25.2494C56.6603 25.5559 56.4478 25.8205 56.1766 26.0138C55.9054 26.2071 55.586 26.3217 55.2537 26.3448L47.1387 26.9129" stroke="#010101" stroke-width="0.739609" stroke-miterlimit="10" stroke-linecap="round"/>
<path d="M1.00368 179.58C0.940705 177.522 1.6886 175.522 3.08625 174.01C4.4839 172.498 6.41946 171.596 8.47597 171.498C10.5325 171.399 12.5454 172.113 14.081 173.484C15.6167 174.855 16.5522 176.775 16.6861 178.83C16.9701 184.652 26.1401 190.718 38.8605 190.11C39.9027 190.04 40.9484 190.178 41.9364 190.518C42.9243 190.857 43.8346 191.39 44.614 192.085C45.3933 192.781 46.026 193.625 46.4751 194.568C46.9241 195.511 47.1804 196.535 47.229 197.578C47.2776 198.621 47.1175 199.664 46.7581 200.645C46.3986 201.626 45.8471 202.525 45.1358 203.29C44.4244 204.055 43.5676 204.67 42.6155 205.1C41.6634 205.529 40.6351 205.765 39.5908 205.792C18.6945 206.786 1.75432 195.344 1.00368 179.58Z" fill="white" stroke="#010101" stroke-width="0.739609" stroke-miterlimit="10" stroke-linecap="round"/>
</svg>
