<svg width="25" height="26" viewBox="0 0 25 26" fill="none" xmlns="http://www.w3.org/2000/svg">
<path d="M0.637697 12.3625C0.935614 12.0646 1.31478 11.9086 1.7752 11.8945C2.23561 11.8815 2.61478 12.024 2.9127 12.3219L10.8752 20.2844L10.8752 2.125C10.8752 1.66458 11.0312 1.27838 11.3432 0.966375C11.6541 0.655459 12.0398 0.5 12.5002 0.5C12.9606 0.5 13.3468 0.655459 13.6588 0.966375C13.9697 1.27838 14.1252 1.66458 14.1252 2.125L14.1252 20.2844L22.0877 12.3219C22.3856 12.024 22.7648 11.8815 23.2252 11.8945C23.6856 11.9086 24.0648 12.0646 24.3627 12.3625C24.6606 12.6604 24.8096 13.0396 24.8096 13.5C24.8096 13.9604 24.6606 14.3396 24.3627 14.6375L13.6377 25.3625C13.5023 25.525 13.3333 25.6404 13.1307 25.7086C12.927 25.7758 12.7169 25.8094 12.5002 25.8094C12.2835 25.8094 12.0804 25.7758 11.8908 25.7086C11.7012 25.6404 11.5252 25.525 11.3627 25.3625L0.637697 14.6375C0.33978 14.3396 0.190819 13.9604 0.190819 13.5C0.190819 13.0396 0.33978 12.6604 0.637697 12.3625V12.3625Z" fill="white"/>
</svg>
