<svg width="36" height="36" viewBox="0 0 36 36" fill="none" xmlns="http://www.w3.org/2000/svg">
<path d="M12.7037 17.4185C15.581 16.9402 17.0517 15.3993 17.4607 12.5034C17.6706 11.0186 17.6688 9.50262 17.7559 8C12.4209 8.12892 8.12004 12.4341 8 17.7706C9.57027 17.6675 11.1592 17.6755 12.7037 17.4185Z" fill="white"/>
<path d="M18.7651 12.7737C19.167 15.4224 20.7186 16.99 23.3497 17.4043C24.8808 17.6461 26.4484 17.6604 28 17.7715C27.8817 12.4848 23.6609 8.21072 18.3952 8.00622C18.5073 9.59687 18.5268 11.2026 18.7651 12.7737Z" fill="white"/>
<path d="M23.3977 18.7815C20.8973 19.163 19.2568 20.622 18.8291 23.1534C18.5597 24.7458 18.5277 26.3791 18.397 27.9947C23.6013 27.7919 27.7839 23.6131 27.9947 18.4108C26.4609 18.5237 24.9137 18.5504 23.3977 18.7815Z" fill="white"/>
<path d="M17.4652 23.7153C17.0615 20.8168 15.5348 19.2225 12.6681 18.77C11.1334 18.5273 9.56226 18.5184 8.00622 18.4126C8.21962 23.6646 12.4814 27.8737 17.7559 28C17.6697 26.5703 17.6626 25.1299 17.4652 23.7153Z" fill="white"/>
</svg>
