<svg width="61" height="61" viewBox="0 0 61 61" fill="none" xmlns="http://www.w3.org/2000/svg">
<rect x="20.2207" width="20.5585" height="4.04429" fill="#29CB64"/>
<rect x="40.7793" y="60.6644" width="20.5585" height="4.04429" transform="rotate(-180 40.7793 60.6644)" fill="#29CB64"/>
<rect y="40.7799" width="20.5585" height="4.04429" transform="rotate(-90 0 40.7799)" fill="#29CB64"/>
<rect x="56.9561" y="40.443" width="20.5585" height="4.04429" transform="rotate(-90 56.9561 40.443)" fill="#29CB64"/>
<rect x="16.1768" y="4.04419" width="4.04429" height="4.04429" fill="#29CB64"/>
<rect x="44.8242" y="56.62" width="4.04429" height="4.04429" transform="rotate(-180 44.8242 56.62)" fill="#29CB64"/>
<rect width="4.04429" height="4.04429" transform="matrix(-1 0 0 1 44.8242 3.70728)" fill="#29CB64"/>
<rect width="4.04429" height="4.04429" transform="matrix(1 8.74228e-08 8.74228e-08 -1 16.1768 56.957)" fill="#29CB64"/>
<rect x="12.1328" y="4.04419" width="4.04429" height="4.04429" fill="#29CB64"/>
<rect x="48.8682" y="56.62" width="4.04429" height="4.04429" transform="rotate(-180 48.8682 56.62)" fill="#29CB64"/>
<rect width="4.04429" height="4.04429" transform="matrix(-1 0 0 1 48.8682 3.70728)" fill="#29CB64"/>
<rect width="4.04429" height="4.04429" transform="matrix(1 8.74228e-08 8.74228e-08 -1 12.1328 56.957)" fill="#29CB64"/>
<rect x="4.04395" y="12.1329" width="4.04429" height="4.04429" fill="#29CB64"/>
<rect x="56.9561" y="48.5314" width="4.04429" height="4.04429" transform="rotate(-180 56.9561 48.5314)" fill="#29CB64"/>
<rect width="4.04429" height="4.04429" transform="matrix(-1 0 0 1 56.9561 11.7958)" fill="#29CB64"/>
<rect width="4.04429" height="4.04429" transform="matrix(1 8.74228e-08 8.74228e-08 -1 4.04395 48.8684)" fill="#29CB64"/>
<rect x="4.04395" y="16.1772" width="4.04429" height="4.04429" fill="#29CB64"/>
<rect x="56.9561" y="44.4872" width="4.04429" height="4.04429" transform="rotate(-180 56.9561 44.4872)" fill="#29CB64"/>
<rect width="4.04429" height="4.04429" transform="matrix(-1 0 0 1 56.9561 15.8401)" fill="#29CB64"/>
<rect width="4.04429" height="4.04429" transform="matrix(1 8.74228e-08 8.74228e-08 -1 4.04395 44.8241)" fill="#29CB64"/>
<rect x="8.08789" y="8.0885" width="4.04429" height="4.04429" fill="#29CB64"/>
<rect x="52.9121" y="52.5757" width="4.04429" height="4.04429" transform="rotate(-180 52.9121 52.5757)" fill="#29CB64"/>
<rect width="4.04429" height="4.04429" transform="matrix(-1 0 0 1 52.9121 7.75159)" fill="#29CB64"/>
<rect width="4.04429" height="4.04429" transform="matrix(1 8.74228e-08 8.74228e-08 -1 8.08789 52.9127)" fill="#29CB64"/>
<rect x="15.5576" y="27.8395" width="4.91286" height="4.91286" fill="#29CB64"/>
<rect x="20.4697" y="32.7521" width="4.91286" height="4.91286" fill="#29CB64"/>
<rect x="25.3848" y="37.665" width="4.91286" height="4.91286" fill="#29CB64"/>
<rect x="30.2959" y="32.7521" width="4.91286" height="4.91286" fill="#29CB64"/>
<rect x="35.209" y="27.8395" width="4.91286" height="4.91286" fill="#29CB64"/>
<rect x="40.1221" y="22.9264" width="4.91286" height="4.91286" fill="#29CB64"/>
<rect x="45.0342" y="18.0137" width="4.91286" height="4.91286" fill="#29CB64"/>
</svg>
