<svg width="257" height="34" viewBox="0 0 257 34" fill="none" xmlns="http://www.w3.org/2000/svg">
<path d="M13.1345 28H17.1784V4.77237H11.2963C5.38079 4.77237 2.27263 7.81368 2.27263 12.2921C2.27263 15.8682 3.97711 17.9737 7.01842 20.1461L1.73789 28H6.11605L11.9982 19.2103L9.95947 17.84C7.48632 16.1689 6.28316 14.8655 6.28316 12.0582C6.28316 9.585 8.02105 7.91395 11.3297 7.91395H13.1345V28ZM66.2405 26.8637V23.6218C65.0039 24.4574 62.9318 25.1926 60.9934 25.1926C58.0858 25.1926 56.9829 23.8224 56.8158 21.015H66.4076V18.9095C66.4076 13.0608 63.8342 10.855 59.8571 10.855C55.0111 10.855 52.705 14.5647 52.705 19.6447C52.705 25.4934 55.5792 28.3342 60.6592 28.3342C63.1992 28.3342 65.0708 27.6658 66.2405 26.8637ZM91.1058 28.3342C92.9439 28.3342 94.2474 28 95.2166 27.2982V24.0563C94.214 24.7582 93.0108 25.1926 91.3397 25.1926C88.499 25.1926 87.3292 22.9868 87.3292 19.5111C87.3292 15.8682 88.7663 13.9966 91.3732 13.9966C92.9105 13.9966 94.4145 14.5313 95.2166 15.0326V11.6571C94.3811 11.1892 92.9105 10.855 90.9387 10.855C85.8587 10.855 83.2184 14.4979 83.2184 19.6113C83.2184 25.2261 85.7918 28.3342 91.1058 28.3342ZM29.8116 11.1892V17.84H24.4976V11.1892H20.5205V28H24.4976V20.9816H29.8116V28H33.7887V11.1892H29.8116ZM51.7358 24.8584H49.9645V11.1892H38.3674V12.6263C38.3674 16.7371 38.1 22.0511 36.6963 24.8584H35.4597V31.8434H39.1361V28H48.0595V31.8434H51.7358V24.8584ZM78.9405 28H83.4524L77.0689 18.9429L82.6837 11.1892H78.6732L73.0584 18.9429V11.1892H69.0813V28H73.0584V19.745L78.9405 28ZM59.7903 13.9966C61.7621 13.9966 62.3637 15.6342 62.3637 17.7397V18.0739H56.8158C56.9161 15.4003 57.8853 13.9966 59.7903 13.9966ZM45.9874 24.8584H40.3726C41.4755 22.3184 41.7763 17.7397 41.7763 14.8321V14.3308H45.9874V24.8584Z" fill="black" fill-opacity="0.85"/>
<path d="M104.362 4.77237V28H108.406V7.91395H115.625V28H119.669V4.77237H104.362ZM126.674 11.1892H122.998V32.8461H126.975V26.0282C127.978 27.5321 129.448 28.3342 131.153 28.3342C135.03 28.3342 137.703 25.2261 137.703 19.5779C137.703 13.9632 135.096 10.855 131.353 10.855C129.482 10.855 127.944 11.7239 126.875 13.3616L126.674 11.1892ZM130.15 25.1926C128.045 25.1926 126.975 23.4882 126.975 19.6113C126.975 15.7011 128.111 13.9966 130.351 13.9966C132.523 13.9966 133.592 15.7011 133.592 19.5779C133.592 23.4882 132.456 25.1926 130.15 25.1926ZM152.764 16.5366C152.764 12.4592 150.692 10.9218 146.481 10.9218C143.841 10.9218 141.769 11.7574 140.566 12.4592V15.7679C141.635 14.9658 143.975 14.0968 146.013 14.0968C147.918 14.0968 148.787 14.7653 148.787 16.57V17.5058H148.152C142.07 17.5058 139.363 19.5111 139.363 22.92C139.363 26.3289 141.435 28.2339 144.509 28.2339C146.849 28.2339 147.851 27.4653 148.62 26.6632H148.787C148.821 27.0976 148.954 27.6658 149.088 28H152.965C152.831 26.6297 152.764 25.2595 152.764 23.8892V16.5366ZM148.787 23.9895C148.286 24.7247 147.35 25.3263 145.946 25.3263C144.275 25.3263 143.44 24.3237 143.44 22.8197C143.44 20.8479 144.81 20.1461 148.219 20.1461H148.787V23.9895ZM165.821 28H170.333L163.95 18.9429L169.564 11.1892H165.554L159.939 18.9429V11.1892H155.962V28H159.939V19.745L165.821 28ZM183.504 14.3308V11.1892H170.169V14.3308H174.848V28H178.825V14.3308H183.504ZM185.858 11.1892V28H189.301L195.45 17.6061V28H199.327V11.1892H195.885L189.735 21.5832V11.1892H185.858ZM212.526 28H217.038L210.654 18.9429L216.269 11.1892H212.259L206.644 18.9429V11.1892H202.667V28H206.644V19.745L212.526 28ZM220.537 33.1803C224.247 33.1803 225.617 30.54 226.753 27.0976L232 11.1892H228.157L224.447 23.8224L220.738 11.1892H216.56L222.342 28.7353C221.907 29.5374 221.272 30.0387 220.169 30.0387C219.434 30.0387 218.799 29.8047 218.365 29.3703V32.6121C218.365 32.6121 218.966 33.1803 220.537 33.1803ZM247.847 28H251.724L251.657 11.1892H246.209L242.566 22.3853L239.291 11.1892H233.509V28H236.885V15.4337L240.528 28H243.77L247.847 15.4337V28Z" fill="black" fill-opacity="0.85"/>
</svg>
