<svg width="61" height="60" viewBox="0 0 61 60" fill="none" xmlns="http://www.w3.org/2000/svg">
<rect x="16.333" y="19.6665" width="4" height="4" fill="#262626"/>
<rect x="12.333" y="19.6665" width="4" height="4" fill="#262626"/>
<rect x="40.333" y="19.6665" width="4" height="4" fill="#262626"/>
<rect x="36.333" y="19.6665" width="4" height="4" fill="#262626"/>
<rect x="20.333" y="19.6665" width="4" height="4" fill="#262626"/>
<rect x="44.333" y="19.6665" width="4" height="4" fill="#262626"/>
<rect x="20.333" y="23.6665" width="4" height="4" fill="#262626"/>
<rect x="44.333" y="23.6665" width="4" height="4" fill="#262626"/>
<rect x="12.333" y="36.6666" width="4" height="4" fill="#262626"/>
<rect x="44.333" y="36.6666" width="4" height="4" fill="#262626"/>
<rect x="16.333" y="40.6667" width="4" height="4" fill="#262626"/>
<rect x="40.333" y="40.6667" width="4" height="4" fill="#262626"/>
<rect x="20.333" y="44.6666" width="4" height="4" fill="#262626"/>
<rect x="24.334" y="44.6666" width="4" height="4" fill="#262626"/>
<rect x="28.333" y="44.6666" width="4" height="4" fill="#262626"/>
<rect x="32.333" y="44.6666" width="4" height="4" fill="#262626"/>
<rect x="36.333" y="44.6666" width="4" height="4" fill="#262626"/>
<rect x="12.333" y="32.6666" width="4" height="4" fill="#262626"/>
<rect x="44.333" y="32.6666" width="4" height="4" fill="#262626"/>
<rect x="20" width="20.3333" height="4" fill="#262626"/>
<rect x="40.334" y="60" width="20.3333" height="4" transform="rotate(-180 40.334 60)" fill="#262626"/>
<rect y="40.3333" width="20.3333" height="4" transform="rotate(-90 0 40.3333)" fill="#262626"/>
<rect x="56.333" y="40" width="20.3333" height="4" transform="rotate(-90 56.333 40)" fill="#262626"/>
<rect x="16" y="4" width="4" height="4" fill="#262626"/>
<rect x="44.333" y="56" width="4" height="4" transform="rotate(-180 44.333 56)" fill="#262626"/>
<rect width="4" height="4" transform="matrix(-1 0 0 1 44.333 3.66663)" fill="#262626"/>
<rect width="4" height="4" transform="matrix(1 8.74228e-08 8.74228e-08 -1 16 56.3333)" fill="#262626"/>
<rect x="12.001" y="4" width="4" height="4" fill="#262626"/>
<rect x="48.334" y="56" width="4" height="4" transform="rotate(-180 48.334 56)" fill="#262626"/>
<rect width="4" height="4" transform="matrix(-1 0 0 1 48.334 3.66663)" fill="#262626"/>
<rect width="4" height="4" transform="matrix(1 8.74228e-08 8.74228e-08 -1 12.001 56.3333)" fill="#262626"/>
<rect x="4" y="12" width="4" height="4" fill="#262626"/>
<rect x="56.333" y="48" width="4" height="4" transform="rotate(-180 56.333 48)" fill="#262626"/>
<rect width="4" height="4" transform="matrix(-1 0 0 1 56.333 11.6667)" fill="#262626"/>
<rect width="4" height="4" transform="matrix(1 8.74228e-08 8.74228e-08 -1 4 48.3334)" fill="#262626"/>
<rect x="4" y="15.9999" width="4" height="4" fill="#262626"/>
<rect x="56.333" y="44" width="4" height="4" transform="rotate(-180 56.333 44)" fill="#262626"/>
<rect width="4" height="4" transform="matrix(-1 0 0 1 56.333 15.6666)" fill="#262626"/>
<rect width="4" height="4" transform="matrix(1 8.74228e-08 8.74228e-08 -1 4 44.3335)" fill="#262626"/>
<rect x="8" y="7.99988" width="4" height="4" fill="#262626"/>
<rect x="52.334" y="52" width="4" height="4" transform="rotate(-180 52.334 52)" fill="#262626"/>
<rect width="4" height="4" transform="matrix(-1 0 0 1 52.334 7.66663)" fill="#262626"/>
<rect width="4" height="4" transform="matrix(1 8.74228e-08 8.74228e-08 -1 8 52.3334)" fill="#262626"/>
</svg>
