<svg width="26" height="25" viewBox="0 0 26 25" fill="none" xmlns="http://www.w3.org/2000/svg">
<path d="M12.3625 24.3625C12.0646 24.0646 11.9086 23.6855 11.8945 23.225C11.8815 22.7646 12.024 22.3855 12.3219 22.0875L20.2844 14.125H2.125C1.66458 14.125 1.27838 13.969 0.966375 13.657C0.655459 13.3461 0.5 12.9605 0.5 12.5C0.5 12.0396 0.655459 11.6534 0.966375 11.3414C1.27838 11.0305 1.66458 10.875 2.125 10.875H20.2844L12.3219 2.91255C12.024 2.61463 11.8815 2.23547 11.8945 1.77505C11.9086 1.31463 12.0646 0.935465 12.3625 0.637548C12.6604 0.339632 13.0396 0.190674 13.5 0.190674C13.9604 0.190674 14.3396 0.339632 14.6375 0.637548L25.3625 11.3625C25.525 11.498 25.6404 11.667 25.7086 11.8695C25.7758 12.0732 25.8094 12.2834 25.8094 12.5C25.8094 12.7167 25.7758 12.9198 25.7086 13.1094C25.6404 13.299 25.525 13.475 25.3625 13.6375L14.6375 24.3625C14.3396 24.6605 13.9604 24.8094 13.5 24.8094C13.0396 24.8094 12.6604 24.6605 12.3625 24.3625V24.3625Z" fill="white"/>
</svg>
