<svg xmlns="http://www.w3.org/2000/svg" width="61" height="60" fill="none"><path fill="#29CB64" d="M20 0h20.333v4H20V0ZM40.334 60H20.001v-4h20.333v4ZM0 40.333V20h4v20.333H0ZM56.333 40V19.667h4V40h-4ZM16 4h4v4h-4V4ZM44.333 56h-3.999l-.001-4h4v4ZM44.333 3.667h-4v4h4v-4ZM16 56.333h4v-4h-4v4Z"/><path fill="#29CB64" d="M12.001 4h4v4h-4V4ZM48.334 56h-4.001v-4h4.001v4ZM48.334 3.667h-4.001v4h4.001v-4ZM12.001 56.333h4v-4h-4v4ZM4 12h4v4H4v-4ZM56.333 48h-4v-4h4v4ZM56.333 11.667h-4v4h4v-4ZM4 48.333h4v-4H4v4ZM4 16h4v4H4v-4ZM56.333 44h-4v-4h4v4ZM56.333 15.667h-4v4h4v-4ZM4 44.333h4v-4H4v4ZM8 8h4.001L12 12H8V8ZM52.334 52h-4v-4h3.999l.001 4ZM52.334 7.667h-4v4h3.999l.001-4ZM8 52h4V12H8v40Z"/><path fill="#29CB64" d="M12 51.5v1l7 3.5 20.5 1 .5-1h5l2-3 1-1h.5l3.5-4h.5v-.5L56 40h.5l1.5-7-1-13-1-.5-3-7.5-1-.5L48.5 8 48 7l-7.5-3-18-3L20 4l-6 2-1.999 2L9.5 13H5l-1 7v20.5l2.5 1 5.5 10Z"/><path fill="#fff" d="M39.68 44H20.84v-4.6a227.487 227.487 0 0 0 6.28-5c1.733-1.44 3.147-2.76 4.24-3.96 1.12-1.227 1.933-2.373 2.44-3.44a7.738 7.738 0 0 0 .76-3.36c0-1.44-.44-2.587-1.32-3.44-.853-.853-2.08-1.28-3.68-1.28a9.44 9.44 0 0 0-4.28 1 14.896 14.896 0 0 0-3.64 2.64v-4.6a12.443 12.443 0 0 1 3.6-2.2c1.333-.56 2.933-.84 4.8-.84 1.467 0 2.773.2 3.92.6 1.173.4 2.173.973 3 1.72a6.882 6.882 0 0 1 1.88 2.68c.453 1.04.68 2.213.68 3.52 0 1.467-.293 2.84-.88 4.12-.587 1.28-1.453 2.56-2.6 3.84-1.12 1.28-2.533 2.613-4.24 4a191.729 191.729 0 0 1-5.84 4.52h13.72V44Z"/></svg>