<svg width="20" height="20" viewBox="0 0 20 20" fill="none" xmlns="http://www.w3.org/2000/svg">
<path fill-rule="evenodd" clip-rule="evenodd" d="M2.23741 9.02691C7.06923 7.05119 10.2912 5.74867 11.9033 5.11936C16.5063 3.32254 17.4627 3.01042 18.0861 3.00011C18.2232 2.99784 18.5298 3.02973 18.7284 3.18096C18.8961 3.30866 18.9422 3.48116 18.9643 3.60223C18.9864 3.7233 19.0139 3.9991 18.992 4.2146C18.7426 6.6743 17.6633 12.6433 17.1142 15.3983C16.8818 16.564 16.4244 16.9548 15.9815 16.9931C15.0189 17.0762 14.288 16.3961 13.3558 15.8225C11.897 14.9251 11.0729 14.3664 9.65691 13.4907C8.02048 12.4786 9.08131 11.9223 10.0139 11.0132C10.258 10.7753 14.4988 7.15509 14.5809 6.82668C14.5912 6.7856 14.6007 6.6325 14.5038 6.55166C14.4069 6.47081 14.2639 6.49846 14.1606 6.52045C14.0143 6.55161 11.6839 7.99723 7.16938 10.8573C6.5079 11.2836 5.90875 11.4913 5.37193 11.4804C4.78013 11.4684 3.64175 11.1664 2.79548 10.9082C1.75749 10.5915 0.932524 10.4241 1.00436 9.88633C1.04178 9.60621 1.45279 9.31974 2.23741 9.02691Z" fill="black"/>
</svg>
