<svg xmlns="http://www.w3.org/2000/svg" width="62" height="60" fill="none"><path fill="#858585" d="M20.833 0h20.333v4H20.833zM41.166 60H20.833v-4h20.333zM.834 40.333V20h4v20.333zM57.166 40V19.667h4V40zM16.834 4h4v4h-4zM45.167 56h-4v-4h4zM45.167 3.667h-4v4h4z"/><path fill="#858585" d="M16.834 56.333h4v-4h-4zM12.834 4h4v4h-4zM49.167 56h-4v-4h4zM49.167 3.667h-4v4h4zM12.834 56.333h4v-4h-4zM4.834 12h4v4h-4zM57.167 48h-4v-4h4zM57.166 11.667h-4v4h4zM4.834 48.333h4v-4h-4zM4.834 16h4v4h-4zM57.167 44h-4v-4h4zM57.166 15.667h-4v4h4zM4.834 44.333h4v-4h-4zM8.833 8h4v4h-4zM53.167 52h-4v-4h4zM53.166 7.667h-4v4h4zM8.833 52.333h4v-4h-4zM42.634 35.76c0 1.333-.253 2.533-.76 3.6a8.136 8.136 0 0 1-2.16 2.72c-.933.747-2.053 1.32-3.36 1.72-1.307.4-2.76.6-4.36.6-2 0-3.707-.227-5.12-.68-1.387-.453-2.52-1.013-3.4-1.68v-4.48c.907.747 2.027 1.427 3.36 2.04 1.333.587 2.96.88 4.88.88s3.4-.427 4.44-1.28c1.04-.853 1.56-2.027 1.56-3.52 0-3.04-1.973-4.56-5.92-4.56h-3.6v-4.04h3.76c1.467 0 2.653-.36 3.56-1.08.907-.747 1.36-1.8 1.36-3.16 0-1.227-.44-2.187-1.32-2.88-.88-.72-2.16-1.08-3.84-1.08-1.733 0-3.213.293-4.44.88a14.54 14.54 0 0 0-3.32 2.08V17.4c.933-.747 2.067-1.347 3.4-1.8 1.333-.453 2.96-.68 4.88-.68 1.44 0 2.733.187 3.88.56 1.173.373 2.16.893 2.96 1.56a6.553 6.553 0 0 1 1.88 2.4c.453.933.68 1.96.68 3.08 0 .933-.16 1.76-.48 2.48a6.48 6.48 0 0 1-1.2 1.92 6.623 6.623 0 0 1-1.76 1.32c-.667.32-1.36.547-2.08.68a7.803 7.803 0 0 1 2.44.72c.8.347 1.493.813 2.08 1.4a5.9 5.9 0 0 1 1.44 2.04c.373.8.56 1.693.56 2.68Z"/></svg>