<svg xmlns="http://www.w3.org/2000/svg" width="69" height="68" fill="none"><g filter="url(#a)"><path fill="#29CB64" d="M24 0h20.333v4H24V0ZM44.334 60H24.001v-4h20.333v4ZM4 40.333V20h4v20.333H4ZM60.333 40V19.667h4V40h-4ZM20 4h4v4h-4V4ZM48.333 56h-3.999l-.001-4h4v4ZM48.333 3.667h-4v4h4v-4ZM20 56.333h4v-4h-4v4Z"/><path fill="#29CB64" d="M16.001 4h4v4h-4V4ZM52.334 56h-4.001v-4h4.001v4ZM52.334 3.667h-4.001v4h4.001v-4ZM16.001 56.333h4v-4h-4v4ZM8 12h4v4H8v-4ZM60.333 48h-4v-4h4v4ZM60.333 11.667h-4v4h4v-4ZM8 48.333h4v-4H8v4ZM8 16h4v4H8v-4ZM60.333 44h-4v-4h4v4ZM60.333 15.667h-4v4h4v-4ZM8 44.333h4v-4H8v4ZM12 8h4.001L16 12h-4V8ZM56.334 52h-4v-4h3.999l.001 4ZM56.334 7.667h-4v4h3.999l.001-4ZM12 52h4V12h-4v40Z"/><path fill="#29CB64" d="M16 51.5v1l7 3.5 20.5 1 .5-1h5l2-3 1-1h.5l3.5-4h.5v-.5L60 40h.5l1.5-7-1-13-1-.5-3-7.5-1-.5L52.5 8 52 7l-7.5-3-18-3L24 4l-6 2-1.999 2-2.501 5H9l-1 7v20.5l2.5 1 5.5 10Z"/><path fill="#fff" d="M43.8 35.76c0 1.333-.253 2.533-.76 3.6a8.136 8.136 0 0 1-2.16 2.72c-.933.747-2.053 1.32-3.36 1.72-1.307.4-2.76.6-4.36.6-2 0-3.707-.227-5.12-.68-1.387-.453-2.52-1.013-3.4-1.68v-4.48c.907.747 2.027 1.427 3.36 2.04 1.333.587 2.96.88 4.88.88s3.4-.427 4.44-1.28c1.04-.853 1.56-2.027 1.56-3.52 0-3.04-1.973-4.56-5.92-4.56h-3.6v-4.04h3.76c1.467 0 2.653-.36 3.56-1.08.907-.747 1.36-1.8 1.36-3.16 0-1.227-.44-2.187-1.32-2.88-.88-.72-2.16-1.08-3.84-1.08-1.733 0-3.213.293-4.44.88a14.54 14.54 0 0 0-3.32 2.08V17.4c.933-.747 2.067-1.347 3.4-1.8 1.333-.453 2.96-.68 4.88-.68 1.44 0 2.733.187 3.88.56 1.173.373 2.16.893 2.96 1.56a6.553 6.553 0 0 1 1.88 2.4c.453.933.68 1.96.68 3.08 0 .933-.16 1.76-.48 2.48a6.48 6.48 0 0 1-1.2 1.92 6.623 6.623 0 0 1-1.76 1.32c-.667.32-1.36.547-2.08.68a7.803 7.803 0 0 1 2.44.72c.8.347 1.493.813 2.08 1.4a5.9 5.9 0 0 1 1.44 2.04c.373.8.56 1.693.56 2.68Z"/></g><defs><filter id="a" width="68.333" height="68" x="0" y="0" color-interpolation-filters="sRGB" filterUnits="userSpaceOnUse"><feFlood flood-opacity="0" result="BackgroundImageFix"/><feColorMatrix in="SourceAlpha" result="hardAlpha" values="0 0 0 0 0 0 0 0 0 0 0 0 0 0 0 0 0 0 127 0"/><feOffset dy="4"/><feGaussianBlur stdDeviation="2"/><feComposite in2="hardAlpha" operator="out"/><feColorMatrix values="0 0 0 0 0 0 0 0 0 0 0 0 0 0 0 0 0 0 0.25 0"/><feBlend in2="BackgroundImageFix" result="effect1_dropShadow_158_19135"/><feColorMatrix in="SourceAlpha" result="hardAlpha" values="0 0 0 0 0 0 0 0 0 0 0 0 0 0 0 0 0 0 127 0"/><feOffset dy="4"/><feGaussianBlur stdDeviation="2"/><feComposite in2="hardAlpha" operator="out"/><feColorMatrix values="0 0 0 0 0 0 0 0 0 0 0 0 0 0 0 0 0 0 0.25 0"/><feBlend in2="effect1_dropShadow_158_19135" result="effect2_dropShadow_158_19135"/><feBlend in="SourceGraphic" in2="effect2_dropShadow_158_19135" result="shape"/></filter></defs></svg>