<svg xmlns="http://www.w3.org/2000/svg" width="70" height="68" fill="none"><g filter="url(#a)"><path fill="#858585" d="M24.834 0h20.333v4H24.833V0ZM45.167 60H24.834v-4h20.333v4ZM4.833 40.333V20h4v20.333h-4ZM61.166 40V19.667h4V40h-4ZM20.834 4h4v4h-4V4ZM49.166 56h-3.998l-.002-4h4v4Z"/><path fill="#858585" d="M49.166 3.667h-4v4h4v-4ZM20.834 56.333h4v-4h-4v4ZM16.834 4h4v4h-4V4ZM53.167 56h-4v-4h4v4ZM53.167 3.667h-4v4h4v-4ZM16.834 56.333h4v-4h-4v4ZM8.834 12h4v4h-4v-4ZM61.166 48h-4v-4h4v4ZM61.166 11.667h-4v4h4v-4ZM8.834 48.333h4v-4h-4v4ZM8.834 16h4v4h-4v-4ZM61.166 44h-4v-4h4v4ZM61.166 15.667h-4v4h4v-4ZM8.834 44.333h4v-4h-4v4ZM12.834 8h4v4h-4V8ZM57.167 52h-4v-4h4v4ZM57.167 7.667h-4v4h4v-4ZM12.834 52h4V12h-4v40Z"/><path fill="#858585" d="M16.834 51.5v1l7 3.5 20.5 1 .5-1h5l2-3 1-1h.5l3.5-4h.5v-.5l3.5-7.5h.5l1.5-7-1-13-1-.5-3-7.5-1-.5-3.5-3.5-.5-1-7.5-3-18-3-2.5 3-6 2-2 2-2.5 5h-4.5l-1 7v20.5l2.5 1 5.5 10Z"/><path fill="#fff" d="M25.734 3h18.2v3.6h-18.2V3ZM43.934 57h-18.2v-3.6h18.2V57ZM7.833 39.3V21h3.58v18.3h-3.58ZM58.253 39V20.7h3.58V39h-3.58ZM22.154 6.6h3.58v3.6h-3.58V6.6ZM47.513 53.4h-3.58v-3.6h3.58v3.6Z"/><path fill="#fff" d="M47.513 6.3h-3.58v3.6h3.58V6.3ZM22.154 53.7h3.58v-3.6h-3.58v3.6ZM18.575 6.6h3.58v3.6h-3.58V6.6ZM51.094 53.4h-3.581v-3.6h3.581v3.6ZM51.094 6.3h-3.581v3.6h3.581V6.3Z"/><path fill="#fff" d="M18.575 53.7h3.58v-3.6h-3.58v3.6ZM11.414 13.8h3.58v3.6h-3.58v-3.6ZM58.253 46.2h-3.58v-3.6h3.58v3.6ZM58.253 13.5h-3.58v3.6h3.58v-3.6ZM11.414 46.5h3.58v-3.6h-3.58v3.6Z"/><path fill="#fff" d="M11.414 17.4h3.58V21h-3.58v-3.6ZM58.253 42.6h-3.58V39h3.58v3.6ZM58.253 17.1h-3.58v3.6h3.58v-3.6ZM11.414 42.9h3.58v-3.6h-3.58v3.6ZM14.994 10.2h3.58v3.6h-3.58v-3.6ZM54.674 49.8h-3.58v-3.6h3.58v3.6ZM54.674 9.9h-3.58v3.6h3.58V9.9Z"/><path fill="#fff" d="M14.994 49.8h3.58v-36h-3.58v36Z"/><path fill="#fff" d="M18.574 49.35v.9l6.265 3.15 18.348.9.448-.9h4.475l1.79-2.7.895-.9h.448l3.132-3.6h.448v-.45L57.955 39h.448l1.342-6.3L58.85 21l-.895-.45-2.685-6.75-.895-.45-3.132-3.15-.448-.9-6.713-2.7-16.11-2.7-2.238 2.7-5.37 1.8-1.79 1.8-2.238 4.5H12.31l-.895 6.3v18.45l2.237.9 4.923 9Z"/><path fill="#858585" d="M43.633 35.76c0 1.333-.253 2.533-.76 3.6a8.136 8.136 0 0 1-2.16 2.72c-.933.747-2.053 1.32-3.36 1.72-1.306.4-2.76.6-4.36.6-2 0-3.706-.227-5.12-.68-1.386-.453-2.52-1.013-3.4-1.68v-4.48c.907.747 2.027 1.427 3.36 2.04 1.334.587 2.96.88 4.88.88s3.4-.427 4.44-1.28c1.04-.853 1.56-2.027 1.56-3.52 0-3.04-1.973-4.56-5.92-4.56h-3.6v-4.04h3.76c1.467 0 2.654-.36 3.56-1.08.907-.747 1.36-1.8 1.36-3.16 0-1.227-.44-2.187-1.32-2.88-.88-.72-2.16-1.08-3.84-1.08-1.733 0-3.213.293-4.44.88a14.54 14.54 0 0 0-3.32 2.08V17.4c.934-.747 2.067-1.347 3.4-1.8 1.334-.453 2.96-.68 4.88-.68 1.44 0 2.734.187 3.88.56 1.174.373 2.16.893 2.96 1.56a6.553 6.553 0 0 1 1.88 2.4c.454.933.68 1.96.68 3.08 0 .933-.16 1.76-.48 2.48a6.48 6.48 0 0 1-1.2 1.92 6.623 6.623 0 0 1-1.76 1.32c-.666.32-1.36.547-2.08.68a7.803 7.803 0 0 1 2.44.72c.8.347 1.494.813 2.08 1.4a5.9 5.9 0 0 1 1.44 2.04c.374.8.56 1.693.56 2.68Z"/></g><defs><filter id="a" width="68.333" height="68" x=".833" y="0" color-interpolation-filters="sRGB" filterUnits="userSpaceOnUse"><feFlood flood-opacity="0" result="BackgroundImageFix"/><feColorMatrix in="SourceAlpha" result="hardAlpha" values="0 0 0 0 0 0 0 0 0 0 0 0 0 0 0 0 0 0 127 0"/><feOffset dy="4"/><feGaussianBlur stdDeviation="2"/><feComposite in2="hardAlpha" operator="out"/><feColorMatrix values="0 0 0 0 0 0 0 0 0 0 0 0 0 0 0 0 0 0 0.25 0"/><feBlend in2="BackgroundImageFix" result="effect1_dropShadow_158_18748"/><feBlend in="SourceGraphic" in2="effect1_dropShadow_158_18748" result="shape"/></filter></defs></svg>