<svg width="232" height="244" viewBox="0 0 232 244" fill="none" xmlns="http://www.w3.org/2000/svg">
<path d="M108.272 235.034L53.1123 202.93L59.5404 191.905L114.682 223.992" fill="white"/>
<path d="M108.272 235.034L53.1123 202.93L59.5404 191.905L114.682 223.992" stroke="#010101" stroke-width="0.707169" stroke-miterlimit="10" stroke-linecap="round"/>
<path d="M117.591 165.941C97.3188 152.061 85.2705 111.643 99.0964 91.3713C105.818 81.6305 116.121 74.9464 127.756 72.7796C139.391 70.6128 151.41 73.1397 161.187 79.8079L176.97 90.5813" stroke="#010101" stroke-width="10.6075" stroke-miterlimit="10" stroke-linecap="round"/>
<path d="M170.068 78.1343L162.848 88.6631L194.419 110.313L201.639 99.7841L170.068 78.1343Z" fill="#010101"/>
<path d="M209.901 119.185C209.259 119.192 208.631 118.997 208.106 118.628L194.908 109.651C194.212 109.171 193.734 108.435 193.579 107.604C193.425 106.772 193.606 105.914 194.082 105.215L196.686 101.445C196.974 101.013 197.363 100.659 197.821 100.415C198.278 100.171 198.789 100.043 199.308 100.044C199.952 100.041 200.58 100.243 201.103 100.619L214.301 109.597C214.647 109.833 214.944 110.135 215.173 110.486C215.403 110.837 215.56 111.23 215.637 111.642C215.714 112.054 215.708 112.478 215.621 112.888C215.533 113.298 215.365 113.687 215.126 114.032L212.541 117.802C212.246 118.23 211.852 118.579 211.392 118.82C210.932 119.061 210.421 119.186 209.901 119.185Z" fill="white"/>
<path d="M199.311 100.868C199.775 100.866 200.227 101.011 200.604 101.281L213.801 110.259C214.051 110.427 214.264 110.644 214.428 110.897C214.592 111.15 214.702 111.434 214.753 111.731C214.815 112.025 214.815 112.328 214.754 112.622C214.692 112.916 214.569 113.193 214.394 113.437L211.808 117.225C211.46 117.724 210.929 118.066 210.331 118.176C209.733 118.287 209.116 118.159 208.612 117.818L195.415 108.84C194.916 108.492 194.574 107.961 194.464 107.363C194.353 106.765 194.481 106.148 194.822 105.644L197.426 101.873C197.634 101.565 197.915 101.311 198.243 101.136C198.572 100.961 198.939 100.869 199.311 100.868ZM199.311 99.0723C198.645 99.0758 197.99 99.241 197.402 99.5538C196.814 99.8666 196.311 100.318 195.935 100.868L193.35 104.656C193.046 105.098 192.832 105.596 192.721 106.12C192.61 106.645 192.604 107.186 192.702 107.713C192.8 108.24 193.002 108.743 193.295 109.192C193.588 109.641 193.966 110.028 194.409 110.33L207.606 119.308C208.048 119.612 208.546 119.826 209.07 119.937C209.595 120.048 210.136 120.054 210.663 119.956C211.19 119.858 211.693 119.656 212.142 119.363C212.591 119.07 212.978 118.692 213.28 118.249L215.884 114.478C216.494 113.581 216.724 112.48 216.526 111.414C216.328 110.348 215.716 109.404 214.825 108.786L201.627 99.8084C200.945 99.3406 200.138 99.0902 199.311 99.0902V99.0723Z" fill="#010101"/>
<path d="M210.337 119.145L231.004 88.9977C228.618 87.3712 225.685 86.7547 222.845 87.2829C220.006 87.811 217.491 89.4409 215.849 91.8167L207.5 103.973" fill="white"/>
<path d="M210.337 119.145L231.004 88.9977C228.618 87.3712 225.685 86.7547 222.845 87.2829C220.006 87.811 217.491 89.4409 215.849 91.8167L207.5 103.973" stroke="#010101" stroke-width="0.707169" stroke-miterlimit="10" stroke-linecap="round"/>
<path d="M118.328 166.12C94.1777 170.627 11.2944 120.135 6.71576 95.9311C4.61286 84.2951 7.18608 72.2993 13.8765 62.5495C20.5668 52.7997 30.834 46.0835 42.4475 43.8597L61.2471 40.3584" stroke="#010101" stroke-width="10.6075" stroke-miterlimit="10" stroke-linecap="round"/>
<path d="M47.549 36.3899L49.8887 48.9402L87.5218 41.9245L85.1821 29.3743L47.549 36.3899Z" fill="#010101"/>
<path d="M86.7048 41.1293C85.9627 41.1255 85.2451 40.8636 84.6751 40.3885C84.105 39.9135 83.718 39.2549 83.5805 38.5257L82.7366 34.0188C82.5932 33.1878 82.7731 32.3334 83.2393 31.6308C83.7218 30.9374 84.4565 30.4604 85.2863 30.302L101.015 27.3752H101.608C102.353 27.3749 103.075 27.6349 103.649 28.1103C104.222 28.5857 104.612 29.2466 104.75 29.9788L105.576 34.4857C105.657 34.8971 105.654 35.3206 105.568 35.7309C105.481 36.1411 105.313 36.5298 105.073 36.8738C104.594 37.57 103.858 38.0478 103.026 38.2025L87.3332 41.1293C87.1242 41.1492 86.9138 41.1492 86.7048 41.1293Z" fill="white"/>
<path d="M101.643 28.1841C102.166 28.1803 102.675 28.3568 103.084 28.6837C103.492 29.0107 103.776 29.4682 103.887 29.9796L104.731 34.4865C104.843 35.0788 104.717 35.6911 104.381 36.1915C104.045 36.6919 103.526 37.0404 102.936 37.1619L87.2067 40.0887C87.0635 40.106 86.9188 40.106 86.7757 40.0887C86.2524 40.0924 85.7437 39.916 85.335 39.589C84.9263 39.2621 84.6425 38.8045 84.5313 38.2931L83.6874 33.7862C83.5809 33.1945 83.7087 32.5844 84.0437 32.0852C84.3788 31.5859 84.8949 31.2365 85.4829 31.1108L101.23 28.1841C101.367 28.1656 101.506 28.1656 101.643 28.1841ZM101.643 26.3885C101.392 26.362 101.14 26.362 100.889 26.3885L85.1597 29.3153C84.0969 29.5159 83.1567 30.1289 82.5444 31.0204C81.9321 31.912 81.6975 33.0096 81.8918 34.0735L82.7357 38.5804C82.9077 39.5172 83.4024 40.3642 84.1339 40.9743C84.8653 41.5844 85.7873 41.919 86.7398 41.9202C86.9909 41.9378 87.2429 41.9378 87.494 41.9202L103.223 38.9754C104.289 38.779 105.234 38.1677 105.85 37.2757C106.466 36.3836 106.703 35.2837 106.509 34.2172L105.665 29.7103C105.489 28.772 104.991 27.9247 104.257 27.3148C103.522 26.705 102.598 26.371 101.643 26.3706V26.3885Z" fill="#010101"/>
<path d="M105.006 36.9113L98.3083 1C95.4694 1.53636 92.9581 3.17446 91.323 5.55642C89.6879 7.93838 89.062 10.8706 89.5819 13.7126L92.2932 28.2208" fill="white"/>
<path d="M105.006 36.9113L98.3083 1C95.4694 1.53636 92.9581 3.17446 91.323 5.55642C89.6879 7.93838 89.062 10.8706 89.5819 13.7126L92.2932 28.2208" stroke="#010101" stroke-width="0.707169" stroke-miterlimit="10" stroke-linecap="round"/>
<path d="M113.085 240.961C109.699 240.961 106.451 239.616 104.057 237.222C101.663 234.828 100.318 231.581 100.318 228.195V177.165H125.833L125.833 228.213C125.828 231.592 124.484 234.832 122.094 237.222C119.704 239.612 116.464 240.956 113.085 240.961Z" fill="white" stroke="#010101" stroke-width="0.707169" stroke-miterlimit="10" stroke-linecap="round"/>
<path d="M88.9361 228.637C84.9696 228.676 81.7856 231.923 81.8243 235.889C81.8631 239.856 85.11 243.04 89.0764 243.001L110.245 242.794C114.212 242.755 117.396 239.509 117.357 235.542C117.318 231.576 114.071 228.392 110.105 228.43L88.9361 228.637Z" fill="white" stroke="#010101" stroke-width="0.707169" stroke-miterlimit="10" stroke-linecap="round"/>
<path d="M93.1523 231.656L103.225 220.686C104.285 219.536 105.811 220.686 105.847 222.589L105.937 233.362" fill="white"/>
<path d="M93.1523 231.656L103.225 220.686C104.285 219.536 105.811 220.686 105.847 222.589L105.937 233.362" stroke="#010101" stroke-width="0.707169" stroke-miterlimit="10" stroke-linecap="round"/>
<path d="M120.606 221.227L182.284 204.923L185.552 217.276L123.874 233.58" fill="white"/>
<path d="M120.606 221.227L182.284 204.923L185.552 217.276L123.874 233.58" stroke="#010101" stroke-width="0.707169" stroke-miterlimit="10" stroke-linecap="round"/>
</svg>
