<svg width="354" height="337" viewBox="0 0 354 337" fill="none" xmlns="http://www.w3.org/2000/svg">
<g clip-path="url(#clip0_1_2203)">
<path d="M271.391 169.469H284.307V207.28H271.391V169.469Z" fill="white"/>
<path d="M269.864 208.806H285.833V167.943H269.864V208.806ZM282.821 205.796H272.918V170.995H282.821V205.796Z" fill="#010101"/>
<path d="M230.374 297.705H238.132C241.103 297.705 243.537 300.137 243.537 303.106V330.114C243.537 333.083 241.103 335.516 238.132 335.516H230.374C227.403 335.516 224.969 333.083 224.969 330.114V303.106C224.969 300.137 227.362 297.705 230.374 297.705Z" fill="white"/>
<path d="M230.375 299.23C229.343 299.23 228.353 299.643 227.651 300.343C226.909 301.086 226.496 302.034 226.496 303.065V330.114C226.496 331.145 226.909 332.134 227.651 332.835C228.353 333.578 229.343 333.99 230.375 333.99H238.132C238.628 333.99 239.164 333.907 239.618 333.701C240.072 333.495 240.526 333.206 240.897 332.877C241.268 332.506 241.557 332.093 241.722 331.64C241.929 331.186 242.011 330.65 242.011 330.155V303.065C242.011 302.57 241.929 302.034 241.722 301.581C241.516 301.127 241.227 300.673 240.897 300.343C240.526 299.972 240.113 299.684 239.618 299.519C239.164 299.313 238.628 299.23 238.132 299.23H230.375ZM230.375 296.179H238.132C239.948 296.179 241.722 296.921 243.002 298.199C244.281 299.478 245.023 301.251 245.023 303.065V330.114C245.023 331.928 244.281 333.701 243.002 334.98C241.722 336.258 239.948 337 238.132 337H230.375C228.559 337 226.785 336.258 225.506 334.98C224.227 333.701 223.484 331.928 223.484 330.114V303.065C223.484 301.251 224.227 299.478 225.506 298.199C226.785 296.921 228.518 296.179 230.375 296.179Z" fill="#010101"/>
<path d="M242.094 333.701H180.281C180.281 328.836 182.262 324.135 185.686 320.713C189.153 317.249 193.815 315.311 198.685 315.311H223.649" fill="white"/>
<path d="M178.754 335.186H242.093C242.919 335.186 243.62 334.485 243.62 333.66C243.62 332.835 242.96 332.134 242.093 332.134H181.849C182.22 328.217 183.912 324.548 186.759 321.744C189.936 318.569 194.186 316.796 198.684 316.796H223.649C224.474 316.796 225.175 316.095 225.175 315.27C225.175 314.445 224.515 313.744 223.649 313.744H198.684C193.361 313.744 188.368 315.806 184.613 319.6C180.858 323.352 178.754 328.341 178.754 333.66V335.186Z" fill="#010101"/>
<path d="M234.171 289.375C246.756 289.375 256.948 279.191 256.948 266.615V137.266C256.948 124.69 246.756 114.505 234.171 114.505C221.585 114.505 211.393 124.69 211.393 137.266V266.615C211.435 279.191 221.627 289.375 234.171 289.375Z" fill="#010101"/>
<path d="M309.56 51.7066C305.516 47.6658 300.028 45.3979 294.292 45.3979C288.557 45.3979 283.069 47.6658 279.025 51.7066L217.996 112.691L248.531 143.203L309.56 82.2193C313.604 78.1784 315.873 72.6944 315.873 66.963C315.873 61.2315 313.604 55.7475 309.56 51.7066Z" fill="white"/>
<path d="M248.531 145.348L310.632 83.2914C315.006 78.9206 317.399 73.148 317.399 66.963C317.399 60.778 315.006 55.0053 310.632 50.6346C306.258 46.2638 300.481 43.8723 294.292 43.8723C288.102 43.8723 282.325 46.2638 277.951 50.6346L215.85 112.691L248.531 145.348ZM294.292 46.9236C299.656 46.9236 304.69 49.0265 308.486 52.7787C312.283 56.5722 314.346 61.6026 314.346 66.963C314.346 72.3233 312.241 77.3538 308.486 81.1472L248.531 141.059L220.141 112.691L280.097 52.7787C283.893 48.9852 288.928 46.9236 294.292 46.9236Z" fill="#010101"/>
<path d="M267.264 68.8596L267.759 176.643L289.34 176.561L288.803 68.7771" fill="white"/>
<path d="M266.233 178.169L290.867 178.045L290.331 68.7358C290.331 67.9112 289.629 67.2102 288.804 67.2102C287.979 67.2102 287.277 67.9112 287.277 68.7358L287.814 174.994L269.245 175.077L268.75 68.8183C268.75 67.9936 268.048 67.2927 267.223 67.2927C266.398 67.2927 265.696 67.9936 265.696 68.8183L266.233 178.169Z" fill="#010101"/>
<path d="M243.702 310.528L222.122 309.662L224.68 245.05L246.261 245.915L243.702 310.528Z" fill="#010101"/>
<path d="M55.5825 198.786C68.1678 198.786 78.3599 188.601 78.3599 176.025V143.698C78.4012 129.679 83.8893 116.402 93.8338 106.465C103.778 96.4861 117.024 91.0021 131.136 90.9608C157.792 90.9608 194.599 134.05 194.599 165.305C194.599 177.881 204.791 188.065 217.377 188.065C229.962 188.065 240.154 177.881 240.154 165.305C240.154 112.979 187.254 45.4805 131.053 45.4805C104.769 45.5629 80.1343 55.7888 61.6069 74.3438C43.0796 92.8576 32.8463 117.515 32.805 143.698V176.066C32.805 188.601 42.9971 198.786 55.5825 198.786Z" fill="#010101"/>
<path d="M44.7707 154.46H66.3516V219.155H44.7707V154.46Z" fill="#010101"/>
<path d="M51.7031 213.754H59.4607C62.4317 213.754 64.8662 216.186 64.8662 219.155V246.163C64.8662 249.132 62.4317 251.565 59.4607 251.565H51.7031C48.7322 251.565 46.2976 249.132 46.2976 246.163V219.155C46.2976 216.186 48.6909 213.754 51.7031 213.754Z" fill="white"/>
<path d="M51.6619 215.279C51.1667 215.279 50.6303 215.362 50.1764 215.568C49.7225 215.774 49.2686 216.063 48.9385 216.393C48.5671 216.764 48.2783 217.176 48.1132 217.671C47.9069 218.124 47.8244 218.66 47.8244 219.155V246.204C47.8244 247.235 48.237 248.225 48.9385 248.926C49.6812 249.668 50.6303 250.08 51.6619 250.08H59.4194C60.451 250.08 61.4413 249.668 62.1428 248.926C62.8856 248.183 63.257 247.235 63.257 246.204V219.155C63.257 218.66 63.1744 218.124 62.9681 217.671C62.7618 217.217 62.4729 216.764 62.1428 216.393C61.7715 216.021 61.3588 215.733 60.9049 215.568C60.451 215.362 59.9146 215.279 59.4194 215.279H51.6619ZM51.6619 212.228H59.4194C60.3272 212.228 61.235 212.393 62.0603 212.764C62.8856 213.094 63.6696 213.63 64.2885 214.248C64.9488 214.908 65.4439 215.65 65.774 216.475C66.1041 217.3 66.3104 218.207 66.2692 219.114V246.163C66.2692 247.07 66.1041 247.977 65.774 248.802C65.4439 249.627 64.9075 250.41 64.2885 251.029C63.6283 251.688 62.8856 252.183 62.0603 252.513C61.235 252.843 60.3272 253.049 59.4194 253.049H51.6619C49.8463 253.049 48.072 252.307 46.7928 251.029C45.5136 249.75 44.7709 247.977 44.7709 246.163V219.114C44.7709 217.3 45.5136 215.527 46.7928 214.248C48.1132 212.97 49.8463 212.228 51.6619 212.228Z" fill="#010101"/>
<path d="M63.4219 249.75H1.52655C1.52655 244.885 3.46592 240.184 6.93206 236.762C10.3982 233.298 15.061 231.36 19.9301 231.36H45.0183" fill="white"/>
<path d="M0.000404358 251.276H63.4225C64.2478 251.276 64.9492 250.575 64.9492 249.75C64.9492 248.925 64.2478 248.225 63.4225 248.225H3.09517C3.46654 244.307 5.15835 240.638 7.96427 237.792C11.1416 234.618 15.3917 232.844 19.8894 232.844H44.9777C45.8029 232.844 46.5044 232.144 46.5044 231.319C46.5044 230.494 45.8029 229.793 44.9777 229.793H19.8894C14.5664 229.793 9.57356 231.896 5.81858 235.648C2.0636 239.401 0.000396729 244.39 -0.0408707 249.709V251.276H0.000404358Z" fill="#010101"/>
<path d="M331.759 4.94798C336.504 0.206143 344.179 0.206143 348.924 4.94798C353.67 9.68981 353.67 17.3592 348.924 22.101L323.63 47.3771C318.885 52.1189 311.21 52.1189 306.464 47.3771C301.719 42.6352 301.719 34.9658 306.464 30.224L331.759 4.94798Z" fill="white"/>
<path d="M315.047 52.4487C318.678 52.4487 322.145 51.0468 324.703 48.4491L349.997 23.1731C352.597 20.6166 354 17.153 354 13.5245C354 9.89594 352.597 6.43234 349.997 3.87588C344.839 -1.27829 335.844 -1.27829 330.686 3.87588L305.392 29.1519C302.792 31.7496 301.389 35.172 301.389 38.8005C301.389 42.429 302.792 45.8926 305.392 48.4491C307.95 51.0468 311.375 52.4487 315.047 52.4487ZM340.342 2.92751C343.065 2.92751 345.789 3.95834 347.852 6.02001C351.978 10.1433 351.978 16.9056 347.852 21.0289L322.557 46.305C318.555 50.3046 311.54 50.3046 307.537 46.305C303.411 42.1816 303.411 35.4194 307.537 31.296L332.832 6.02001C334.895 3.95834 337.618 2.92751 340.342 2.92751Z" fill="#010101"/>
<path d="M292.311 244.225V208.476C292.311 205.259 291.032 202.167 288.763 199.899C286.493 197.631 283.398 196.353 280.18 196.353C276.961 196.353 273.866 197.631 271.597 199.899C269.328 202.167 268.048 205.259 268.048 208.476V244.225C267.553 260.924 281.954 259.976 281.954 259.976H304.236C305.928 259.976 307.579 259.275 308.817 258.079C310.013 256.884 310.715 255.234 310.715 253.502C310.715 251.771 310.013 250.163 308.817 248.926C307.62 247.73 305.97 247.029 304.236 247.029H281.954" fill="white"/>
<path d="M281.5 261.502C281.83 261.502 281.995 261.502 282.036 261.502H304.236C306.382 261.502 308.362 260.677 309.889 259.151C311.375 257.626 312.241 255.647 312.241 253.502C312.241 251.358 311.416 249.379 309.889 247.853C308.404 246.369 306.382 245.503 304.277 245.503H293.136C293.59 245.256 293.879 244.761 293.879 244.184V208.434C293.879 204.806 292.476 201.342 289.876 198.786C287.277 196.188 283.852 194.786 280.221 194.786C276.631 194.786 273.123 196.229 270.565 198.786C268.007 201.342 266.562 204.847 266.562 208.434V244.184C266.397 249.956 267.924 254.41 271.06 257.461C274.815 261.172 279.849 261.502 281.5 261.502ZM281.954 258.45C281.789 258.492 276.672 258.739 273.123 255.275C270.648 252.843 269.451 249.132 269.575 244.266V208.434C269.575 205.63 270.689 202.909 272.669 200.93C276.672 196.93 283.687 196.971 287.689 200.93C289.67 202.909 290.784 205.63 290.784 208.434V244.184C290.784 244.72 291.073 245.214 291.527 245.503H281.913C281.087 245.503 280.386 246.204 280.386 247.029C280.386 247.853 281.046 248.554 281.913 248.554H304.195C305.515 248.554 306.753 249.09 307.702 249.998C308.651 250.946 309.146 252.183 309.146 253.502C309.146 254.822 308.61 256.059 307.702 256.966C306.753 257.914 305.515 258.409 304.195 258.409H281.954V258.45Z" fill="#010101"/>
<path d="M331.099 14.3079L310.054 17.5653C309.559 17.6478 309.064 17.8952 308.693 18.225C308.321 18.5549 308.032 19.0085 307.867 19.462C307.702 19.9568 307.702 20.4516 307.826 20.9464C307.95 21.4412 308.197 21.8948 308.569 22.2659L317.275 31.1723" fill="white"/>
<path d="M317.275 32.698C317.646 32.698 318.059 32.5743 318.348 32.2445C318.967 31.6672 318.967 30.6776 318.348 30.1003L309.6 21.1939C309.435 21.029 309.311 20.8228 309.27 20.5754C309.229 20.3693 309.229 20.1219 309.311 19.8745C309.394 19.6683 309.518 19.4621 309.683 19.2972C309.848 19.1323 310.054 19.0498 310.302 19.0086L331.346 15.7924C332.171 15.6687 332.708 14.8852 332.584 14.0606C332.46 13.2359 331.676 12.6586 330.851 12.7823L309.806 16.0398C309.022 16.1635 308.28 16.5346 307.702 17.0294C307.124 17.5654 306.67 18.2251 306.423 18.9673C306.175 19.7095 306.134 20.5342 306.34 21.2764C306.505 22.0598 306.918 22.7608 307.454 23.2968L316.202 32.2445C316.491 32.5331 316.904 32.698 317.275 32.698Z" fill="#010101"/>
<path d="M275.434 247.936H294.167C295.694 247.936 297.138 247.317 298.253 246.245C299.325 245.173 299.944 243.689 299.944 242.163C299.944 240.638 299.325 239.195 298.253 238.122C297.18 237.05 295.694 236.432 294.167 236.432H275.434" fill="white"/>
<path d="M275.434 249.42H294.168C296.107 249.42 297.923 248.637 299.326 247.276C300.688 245.916 301.472 244.101 301.472 242.163C301.472 240.225 300.688 238.37 299.326 237.009C297.964 235.648 296.107 234.906 294.168 234.906H275.434C274.609 234.906 273.908 235.607 273.908 236.432C273.908 237.257 274.568 237.958 275.434 237.958H294.168C295.282 237.958 296.396 238.411 297.18 239.195C297.964 239.978 298.418 241.05 298.418 242.205C298.418 243.318 297.964 244.39 297.18 245.173C296.396 245.957 295.323 246.41 294.168 246.41H275.434C274.609 246.41 273.908 247.111 273.908 247.936C273.908 248.761 274.609 249.42 275.434 249.42Z" fill="#010101"/>
<path d="M278.777 236.308H297.551C299.078 236.308 300.522 235.69 301.595 234.618C302.668 233.546 303.287 232.061 303.287 230.536C303.287 229.01 302.668 227.567 301.595 226.495C300.522 225.423 299.078 224.804 297.551 224.804H278.777" fill="white"/>
<path d="M278.776 237.834H297.551C299.491 237.834 301.306 237.05 302.668 235.69C304.03 234.329 304.772 232.474 304.772 230.536C304.772 228.598 304.03 226.783 302.668 225.423C301.306 224.062 299.449 223.279 297.551 223.279H278.776C277.951 223.279 277.25 223.98 277.25 224.804C277.25 225.629 277.91 226.33 278.776 226.33H297.551C298.665 226.33 299.738 226.783 300.522 227.567C301.306 228.35 301.76 229.422 301.76 230.536C301.76 231.649 301.306 232.721 300.522 233.546C299.738 234.329 298.665 234.783 297.551 234.783H278.818C277.992 234.783 277.291 235.484 277.291 236.308C277.291 237.133 277.951 237.834 278.776 237.834Z" fill="#010101"/>
</g>
<defs>
<clipPath id="clip0_1_2203">
<rect width="354" height="337" fill="white" transform="matrix(-1 0 0 1 354 0)"/>
</clipPath>
</defs>
</svg>
