<svg width="36" height="36" viewBox="0 0 36 36" fill="none" xmlns="http://www.w3.org/2000/svg">
<path d="M15.4 21.8571L22.147 18L15.4 14.1429V21.8571ZM30.428 11.79C30.597 12.3943 30.714 13.2043 30.792 14.2329C30.883 15.2614 30.922 16.1486 30.922 16.92L31 18C31 20.8157 30.792 22.8857 30.428 24.21C30.103 25.3671 29.349 26.1129 28.179 26.4343C27.568 26.6014 26.45 26.7171 24.734 26.7943C23.044 26.8843 21.497 26.9229 20.067 26.9229L18 27C12.553 27 9.16 26.7943 7.821 26.4343C6.651 26.1129 5.897 25.3671 5.572 24.21C5.403 23.6057 5.286 22.7957 5.208 21.7671C5.117 20.7386 5.078 19.8514 5.078 19.08L5 18C5 15.1843 5.208 13.1143 5.572 11.79C5.897 10.6329 6.651 9.88714 7.821 9.56571C8.432 9.39857 9.55 9.28286 11.266 9.20571C12.956 9.11571 14.503 9.07714 15.933 9.07714L18 9C23.447 9 26.84 9.20571 28.179 9.56571C29.349 9.88714 30.103 10.6329 30.428 11.79V11.79Z" fill="white"/>
</svg>
