<svg width="61" height="60" viewBox="0 0 61 60" fill="none" xmlns="http://www.w3.org/2000/svg">
<path d="M20 0H40.3333V4H20V0Z" fill="#29CB64"/>
<path d="M40.334 60H20.0006L20.0006 56L40.334 56V60Z" fill="#29CB64"/>
<path d="M8.88802e-07 40.3333L0 19.9999H4L4 40.3333H8.88802e-07Z" fill="#29CB64"/>
<path d="M56.333 40V19.6667H60.333V40H56.333Z" fill="#29CB64"/>
<path d="M16.0001 4.00001L20 4L20.0001 8.00001H16.0001V4.00001Z" fill="#29CB64"/>
<path d="M44.333 56H40.334L40.333 52H44.333V56Z" fill="#29CB64"/>
<path d="M44.333 3.66663H40.333V7.66663H44.333V3.66663Z" fill="#29CB64"/>
<path d="M16.0001 56.3332H20.0001V52.3332H16.0001L16.0001 56.3332Z" fill="#29CB64"/>
<path d="M12.001 4L16.0001 4.00001V8.00001L12.001 8V4Z" fill="#29CB64"/>
<path d="M48.334 56H44.333V52H48.334V56Z" fill="#29CB64"/>
<path d="M48.334 3.66663H44.333V7.66663H48.334V3.66663Z" fill="#29CB64"/>
<path d="M12.001 56.3333L16.0001 56.3332L16.0001 52.3332L12.001 52.3333V56.3333Z" fill="#29CB64"/>
<path d="M4 12H8V16H4V12Z" fill="#29CB64"/>
<path d="M56.333 48H52.333V44H56.333V48Z" fill="#29CB64"/>
<path d="M56.333 11.6667H52.333V15.6667H56.333V11.6667Z" fill="#29CB64"/>
<path d="M4 48.3334H8V44.3334H4L4 48.3334Z" fill="#29CB64"/>
<path d="M4 16H8V19.9999L4 19.9999V16Z" fill="#29CB64"/>
<path d="M56.333 44H52.333V40H56.333V44Z" fill="#29CB64"/>
<path d="M56.333 15.6667H52.333V19.6666L56.333 19.6667V15.6667Z" fill="#29CB64"/>
<path d="M4 44.3334H8V40.3335L4 40.3333L4 44.3334Z" fill="#29CB64"/>
<path d="M8 7.99988L12.001 8L12 11.9999L8 12L8 7.99988Z" fill="#29CB64"/>
<path d="M52.334 52H48.334V48H52.333L52.334 52Z" fill="#29CB64"/>
<path d="M52.334 7.66663L48.334 7.66663V11.6666L52.333 11.6667L52.334 7.66663Z" fill="#29CB64"/>
<path d="M8 52H12L12 11.9999L8 12L8 52Z" fill="#29CB64"/>
<path d="M12 51.5V52.5L19 56L39.5 57L40 56H45L47 53L48 52H48.5L52 48H52.5V47.5L56 40H56.5L58 33L57 20L56 19.5L53 12L52 11.5L48.5 8L48 7L40.5 4L22.5 1L20 4L14 6L12.001 8L9.5 13H5L4 19.9999V40.5L6.5 41.5L12 51.5Z" fill="#29CB64"/>
<path d="M34.48 44H29.76V20.8L23.76 26.68V21.88L30.4 15.32H34.48V44Z" fill="white"/>
</svg>
